<svg xmlns="http://www.w3.org/2000/svg" width="23" height="25" viewBox="0 0 23 25" fill="none"><path d="M22.9928 5.53487V5.52132C22.9857 5.48504 22.9787 5.44881 22.9692 5.41473C22.9621 5.38309 22.9502 5.3514 22.9384 5.31972C22.9361 5.31292 22.9338 5.30617 22.9313 5.30162C22.9171 5.26993 22.9031 5.23806 22.8841 5.20642C22.8723 5.18607 22.8604 5.16559 22.844 5.14525C22.8251 5.11356 22.8014 5.08407 22.7778 5.05679C22.773 5.05004 22.7659 5.04325 22.7589 5.03645C22.7425 5.01836 22.7258 5.00261 22.7069 4.98667C22.662 4.94143 22.6076 4.90281 22.5509 4.87112C22.5227 4.85303 22.4942 4.83709 22.4637 4.8257C22.4589 4.82129 22.4541 4.81895 22.447 4.81675C22.4446 4.8144 22.4422 4.81215 22.4399 4.81215L18.0733 2.93866L15.9634 2.03228L11.8851 0.281082C11.6393 0.174535 11.3605 0.174535 11.1147 0.281082L0.559906 4.8122C0.557657 4.8122 0.555311 4.8144 0.552866 4.81679C0.545778 4.819 0.541036 4.82139 0.53644 4.82575C0.50569 4.83709 0.477238 4.85303 0.448932 4.87117C0.392223 4.90286 0.337811 4.94148 0.292933 4.98672C0.274062 5.00265 0.257636 5.0184 0.241014 5.0365C0.233926 5.04329 0.226886 5.05009 0.222144 5.05684C0.198433 5.08412 0.174968 5.11361 0.155853 5.14529C0.139427 5.16564 0.127596 5.18612 0.115765 5.20647C0.0968946 5.23811 0.0827173 5.26998 0.0685889 5.30167C0.0660956 5.30626 0.0637979 5.31301 0.0615002 5.31976C0.0496695 5.35145 0.0378388 5.38314 0.0307501 5.41478C0.0212171 5.44881 0.0141284 5.48509 0.00708866 5.52137V5.53492C0.0022977 5.569 0 5.60289 0 5.63912V18.7637C0 19.1195 0.219797 19.4433 0.559906 19.5906L11.0913 24.1127C11.0983 24.1151 11.1054 24.1195 11.1148 24.1217C11.174 24.1468 11.2353 24.1671 11.2991 24.1806C11.3653 24.1942 11.4339 24.2012 11.5 24.2012C11.5685 24.2012 11.6346 24.1942 11.7009 24.1806C11.7647 24.1671 11.8262 24.1468 11.8852 24.1217L11.9089 24.1127L22.44 19.5906C22.7803 19.4433 23 19.1195 23 18.7637V5.63907C22.9999 5.60284 22.9976 5.56895 22.9928 5.53487ZM10.5549 18.6714L10.5516 21.8957L1.89018 18.1768V7.03928L4.4705 8.14707L4.56979 8.18973V11.8546L6.90376 12.8559L7.86733 13.2727V13.2694L7.87535 13.2727V10.6579L7.87843 9.60896L10.5548 10.7594L10.5549 18.6714ZM13.6462 3.02725L5.4108 6.56359L4.11606 6.00751L3.26474 5.63654L11.5 2.10044L12.7972 2.65741L13.6462 3.02725ZM9.17419 8.17398L17.4094 4.63769L18.8049 5.23698L19.7351 5.64184L11.5 9.17795L10.0889 8.57204L9.17419 8.17398ZM12.445 21.8936V10.7594L21.1097 7.03928V18.1768L14.9614 20.8166L12.445 21.8936Z" fill="#006934"></path></svg>